<?xml version="1.0" encoding="UTF-8" standalone="no"?>
<svg
   xmlns="http://www.w3.org/2000/svg"
   version="1.1"
   width="57"
   height="57"
   viewBox="0 0 57 57"
   xml:space="preserve"
   id="svg2">
    <g transform="translate(1,-0.88000107)" id="g4138">
        <circle
       style="fill:#ffffff;fill-opacity:1"
       cx="27.5"
       cy="29.380001"
       r="28.5" />

        <path
       d="M 27.500967,1.88 C 12.335355,1.88 0,14.215355 0,29.38 0,44.544645 12.335355,56.88 27.501934,56.88 42.664645,56.88 55,44.544645 55,29.38 55,14.215355 42.664645,1.88 27.500967,1.88 Z m -7.517053,22.271712 0.05512,-0.06092 c 0.224331,-0.162448 0.333597,-0.417722 0.292985,-0.6846 -0.554061,-3.332102 -0.190489,-4.721606 -0.06769,-5.070675 0.967915,-2.970464 4.006066,-4.344497 4.602673,-4.588168 0.12667,-0.05028 0.361638,-0.120868 0.599507,-0.157612 l 0.07059,-0.01644 0.488308,-0.02611 0.0039,0.02998 0.113133,-0.01064 c 0.100563,-0.01064 0.197257,-0.02417 0.318126,-0.04931 l 0.107331,-0.02321 c 0.09573,9.67e-4 1.278305,0.150844 3.03525,0.689434 l 1.221255,0.420622 c 2.23365,0.659459 3.260549,1.886516 3.451037,2.134054 1.788854,2.025756 1.309248,5.08518 0.866386,6.728024 -0.05028,0.19339 -0.02031,0.392581 0.08896,0.557929 l 0.101529,0.124737 c 0.129572,0.175984 0.245605,0.854782 -0.143108,2.297468 -0.07349,0.438027 -0.234968,0.793864 -0.475738,1.033667 -0.08896,0.09766 -0.150844,0.221431 -0.173084,0.361639 -0.604342,3.543864 -3.779799,7.507384 -7.126406,7.507384 -2.839927,0 -6.081136,-3.646361 -6.664206,-7.504483 -0.02224,-0.144076 -0.08219,-0.270746 -0.181786,-0.380011 -0.242704,-0.251406 -0.397416,-0.614012 -0.491209,-1.150668 -0.284283,-1.009494 -0.312325,-1.822697 -0.09283,-2.162096 z m -6.375088,15.366737 c 0.122802,-0.155678 0.809335,-0.960179 2.197872,-1.490066 1.221256,-0.375176 4.2391,-1.377901 5.888713,-2.573049 0.07736,-0.04255 0.153745,-0.122802 0.216597,-0.187588 0.152778,-0.164381 0.385812,-0.414821 0.662359,-0.671062 l 0.153745,-0.146009 0.156645,0.146976 c 1.453323,1.370165 3.061358,2.121484 4.528218,2.121484 1.541315,0 3.13001,-0.667194 4.598804,-1.930028 l 0.115067,-0.0996 0.311357,0.151811 c 0.278481,0.255274 0.760021,0.60531 0.984353,0.711674 l 0.286217,0.140207 -0.02998,0.03094 0.127638,0.07736 c 0.270745,0.163415 0.565664,0.321994 0.911832,0.493144 0.349068,0.153745 0.641086,0.267844 0.943741,0.366473 0.255274,0.08316 1.612869,0.539557 3.157085,1.253165 l 0.294919,0.08896 c 1.510373,0.578235 2.181435,1.381769 2.248154,1.465893 1.792721,2.657173 2.480221,7.615682 2.735496,10.378252 -4.682929,3.803007 -10.573576,5.896449 -16.594761,5.896449 -6.024086,0 -11.9157,-2.093442 -16.596695,-5.897415 0.25044,-2.755802 0.932138,-7.69884 2.70262,-10.327972 z"
       style="fill:#2aa1d3;fill-opacity:1;stroke:none"
       id="path8" />
    </g>
</svg>