<?xml version="1.0" encoding="UTF-8" standalone="no"?>
<svg
        xmlns="http://www.w3.org/2000/svg"
        version="1.1"
        id="svg2"
        viewBox="0 0 141.2225 155.8075"
        height="155.8075"
        width="141.2225">
    <defs
            id="defs3340">
        <clipPath
                id="clipPath3352"
                clipPathUnits="userSpaceOnUse">
            <path
                    id="path3354"
                    d="M 0,612 792,612 792,0 0,0 0,612 Z"/>
        </clipPath>
    </defs>
    <g
            style="fill:#f2541b;fill-opacity:1"
            id="g3360"
            transform="matrix(1.25,0,0,-1.25,65.8825,155.6975)">
        <path
                d="m 0,0 c -0.435,-0.057 -0.879,-0.088 -1.33,-0.088 -5.569,0 -10.087,4.518 -10.087,10.088 0,3.163 1.458,5.987 3.738,7.837 0.486,0.394 1.01,0.745 1.564,1.044 3.431,1.854 3.474,1.305 3.455,5.711 l -0.035,7.876 c -0.017,3.933 0.456,3.956 -3.145,4.88 -1.942,0.497 -3.787,1.238 -5.5,2.187 -2.42,1.339 -2.392,0.49 -4.347,-1.591 l -0.906,-0.965 c -2.528,-2.692 -1.069,-2.454 -1.069,-5.821 0,-4.219 -3.421,-7.64 -7.64,-7.64 -4.219,0 -7.641,3.421 -7.641,7.64 0,4.219 3.422,7.64 7.641,7.64 0.81,0 1.591,-0.126 2.323,-0.359 2.308,-0.735 1.905,-0.853 3.749,1.109 l 1.303,1.389 c 1.489,1.584 2.035,1.757 0.615,3.309 -1.088,1.19 -2.057,2.492 -2.883,3.886 -1.537,2.594 -1.68,3.381 -5.111,2.089 l -9.793,-3.69 c -5.126,-1.931 -2.895,-0.824 -4.365,-4.692 -0.981,-2.579 -3.476,-4.412 -6.398,-4.412 -3.78,0 -6.844,3.064 -6.844,6.843 0,3.779 3.064,6.843 6.844,6.843 0.895,0 1.751,-0.171 2.535,-0.484 3.531,-1.408 2.004,-2.508 6.12,-0.958 l 10.308,3.883 c 3.948,1.487 3.437,3.042 3.437,6.521 0,1.674 0.233,3.297 0.51,4.884 0.374,2.143 0.83,2.35 -1.986,3.551 l -8.094,3.45 c -2.926,1.247 -2.119,1.181 -4.4,-0.512 -1.302,-0.967 -2.914,-1.538 -4.659,-1.538 -4.32,0 -7.826,3.505 -7.826,7.825 0,4.321 3.506,7.826 7.826,7.826 3.848,0 7.049,-2.78 7.704,-6.441 0.471,-2.635 -0.587,-2.329 2.396,-3.6 l 8.759,-3.734 c 2.536,-1.081 2.471,-0.667 3.497,0.988 0.954,1.539 2.118,2.933 3.429,4.166 1.595,1.498 1.281,2.029 -0.344,4.665 l -7.243,11.751 c -1.511,2.452 -1.403,2.837 -3.971,2.837 -3.779,0 -6.844,3.065 -6.844,6.844 0,3.779 3.065,6.844 6.844,6.844 3.779,0 6.843,-3.065 6.843,-6.844 0,-0.543 -0.062,-1.073 -0.183,-1.579 -0.81,-3.435 -1.972,-2.247 0.155,-5.698 l 7.753,-12.577 c 1.721,-2.794 2.101,-2.47 3.987,-1.555 1.597,0.775 3.343,1.256 5.141,1.538 1.968,0.309 2.168,0.746 2.155,3.774 -0.021,4.917 -0.039,8.754 -0.06,13.671 -0.016,3.588 -0.106,3.469 -2.94,5.07 -3.064,1.732 -5.133,5.02 -5.133,8.789 0,5.57 4.517,10.088 10.087,10.088 L 0,124.557 0,72.158 c -6.672,0 -12.083,-5.411 -12.083,-12.083 0,-6.673 5.411,-12.084 12.083,-12.084 L 0,0 Z m 3.881,83.24 c 1.251,-0.149 2.457,-0.476 3.601,-0.924 1.61,-0.63 1.869,-0.152 3.114,1.87 l 1.442,2.338 c 1.834,2.975 0.43,2 -0.796,4.909 -0.385,0.912 -0.597,1.915 -0.597,2.967 0,4.219 3.421,7.641 7.64,7.641 4.219,0 7.64,-3.422 7.64,-7.641 0,-3.625 -2.526,-6.661 -5.913,-7.444 -0.555,-0.128 -1.134,-0.196 -1.727,-0.196 -2.185,0 -1.807,-0.05 -3.05,-2.067 l -1.068,-1.732 c -1.812,-2.939 -1.877,-2.727 0.36,-4.466 0.656,-0.51 1.275,-1.064 1.868,-1.643 1.533,-1.498 2.001,-0.715 3.856,0.474 l 13.957,8.943 c 2.256,1.446 1.492,1 1.492,3.415 0,3.779 3.064,6.844 6.843,6.844 3.779,0 6.844,-3.065 6.844,-6.844 0,-3.779 -3.065,-6.843 -6.844,-6.843 -0.964,0 -1.882,0.199 -2.713,0.559 -2.077,0.897 -1.487,1.146 -3.594,-0.204 L 22.365,74.308 c -1.88,-1.206 -2.626,-1.372 -1.617,-3.279 1.055,-1.993 1.832,-4.156 2.276,-6.437 0.049,-0.247 0.087,-0.472 0.134,-0.673 0.386,-1.637 0.664,-1.821 3.758,-1.811 l 9.528,0.033 c 4.65,0.015 3.057,0.008 5.331,3.433 1.807,2.721 4.899,4.515 8.41,4.515 5.569,0 10.087,-4.517 10.087,-10.087 0,-5.57 -4.518,-10.087 -10.087,-10.087 -3.945,0 -7.362,2.266 -9.021,5.567 -1.715,3.415 -0.652,2.99 -4.978,2.976 l -8.918,-0.031 c -2.806,-0.01 -3.677,-0.471 -4.075,-1.907 -0.074,-0.268 -0.089,-0.548 -0.14,-0.819 -0.879,-4.658 -3.136,-8.83 -6.33,-12.076 -2.097,-2.131 -2.115,-4.236 1.665,-4.236 3.779,0 6.843,-3.065 6.843,-6.844 0,-3.778 -3.064,-6.843 -6.843,-6.843 -3.779,0 -6.844,3.065 -6.844,6.843 0,0.915 0.18,1.789 0.506,2.588 1.255,3.073 1.318,5.258 -2.294,3.604 C 8.073,37.965 6.282,37.387 4.414,37.031 0.896,36.36 0.97,36.384 0.986,32.586 L 1.022,24.688 C 1.039,20.708 0.688,20.51 3.762,18.709 6.751,16.958 8.758,13.712 8.758,10 8.758,4.88 4.942,0.651 0,0 l 0,47.991 c 6.672,0 12.083,5.411 12.083,12.084 0,6.672 -5.411,12.083 -12.083,12.083 l 0,52.399 c 5.542,-0.032 10.028,-4.537 10.028,-10.087 0,-3.521 -1.805,-6.622 -4.541,-8.427 -3.085,-2.035 -3.896,-1.53 -3.878,-5.585 L 1.67,86.894 C 1.683,83.877 1.975,83.467 3.881,83.24"
                style="fill:#f2541b;fill-opacity:1;fill-rule:evenodd;stroke:none"
                id="path3362"/>
    </g>
</svg>
