<?xml version="1.0" encoding="iso-8859-1"?>
<!-- Generator: Adobe Illustrator 19.0.0, SVG Export Plug-In . SVG Version: 6.00 Build 0)  -->
<svg version="1.1" id="Layer_1" xmlns="http://www.w3.org/2000/svg" xmlns:xlink="http://www.w3.org/1999/xlink" x="0px" y="0px"
	 viewBox="0 0 508 508" style="enable-background:new 0 0 508 508;" xml:space="preserve">
<circle style="fill:#324A5E;" cx="254" cy="254" r="254"/>
<path style="fill:#2B3B4E;" d="M452,94.8C405.2,36.8,334,0,254,0S102.8,36.8,56,94.8H452z"/>
<g>
	<path style="fill:#F9B54C;" d="M343.2,270.4H162.4c-11.2,0-20,8.8-20,20s8.8,20,20,20h181.2c11.2,0,20-8.8,20-20
		C363.2,279.2,354.4,270.4,343.2,270.4z"/>
	<path style="fill:#F9B54C;" d="M298.4,192.4L298.4,192.4c-19.6,0-35.6-16-35.6-35.6v-41.2H334v41.2
		C334,176.4,318,192.4,298.4,192.4z"/>
</g>
<path style="fill:#FFD05B;" d="M304.4,148c-8-8-20.4-8-28.4,0L148,276c-8,8-8,20.4,0,28.4c4,4,9.2,6,14,6c5.2,0,10.4-2,14-6l128-128
	C312.4,168.4,312.4,156,304.4,148z"/>
<g>
	<path style="fill:#FFFFFF;" d="M295.6,370.8v24l10,10c2.8,2.8,2.8,7.2,0,9.6c-1.2,1.2-3.2,2-4.8,2c-1.6,0-3.6-0.8-4.8-2l-12-12
		c-1.2-1.2-2-3.2-2-4.8V368c0-2,0.8-3.6,2-4.8l28.4-28.4c1.2-1.2,2.8-2,4.4-2v10.4c0,2,0.8,3.6,2,4.8L295.6,370.8z"/>
	<path style="fill:#FFFFFF;" d="M365.6,368v29.6c0,1.6-0.8,3.6-2,4.8l-12,12c-1.2,1.2-3.2,2-4.8,2c-1.6,0-3.6-0.8-4.8-2
		c-2.8-2.8-2.8-7.2,0-9.6l10-10v-24L329.2,348c1.2-1.2,2-3.2,2-4.8v-10.4c1.6,0,3.2,0.8,4.4,2l28.4,28.4
		C365.2,364.4,365.6,366,365.6,368z"/>
</g>
<path style="fill:#CED5E0;" d="M331.2,326.4v16.8c0,4-3.2,7.2-7.2,7.2s-7.2-3.2-7.2-7.2v-16.8c2,1.2,4.8,2,7.2,2
	S329.2,327.6,331.2,326.4z"/>
<path style="fill:#E6E9EE;" d="M324,328L324,328c-8.4,0-15.6-6.8-15.6-15.6V310h30.8v2.4C339.2,321.2,332.4,328,324,328z"/>
<g>
	<circle style="fill:#FFFFFF;" cx="290" cy="162.4" r="12.4"/>
	<circle style="fill:#FFFFFF;" cx="162" cy="290.4" r="12.4"/>
</g>
<path style="fill:#FFD05B;" d="M356.8,94.8H240.4l0,0c0,11.6,9.2,20.8,20.8,20.8h74.4C347.2,115.6,356.8,106.4,356.8,94.8
	L356.8,94.8z"/>
<g>
</g>
<g>
</g>
<g>
</g>
<g>
</g>
<g>
</g>
<g>
</g>
<g>
</g>
<g>
</g>
<g>
</g>
<g>
</g>
<g>
</g>
<g>
</g>
<g>
</g>
<g>
</g>
<g>
</g>
</svg>
