<?xml version="1.0" encoding="iso-8859-1"?>
<!-- Generator: Adobe Illustrator 19.0.0, SVG Export Plug-In . SVG Version: 6.00 Build 0)  -->
<svg version="1.1" id="Layer_1" xmlns="http://www.w3.org/2000/svg" xmlns:xlink="http://www.w3.org/1999/xlink" x="0px" y="0px"
	 viewBox="0 0 508 508" style="enable-background:new 0 0 508 508;" xml:space="preserve">
<circle style="fill:#4CDBC4;" cx="254" cy="254" r="254"/>
<path style="fill:#324A5E;" d="M444.8,369.2H63.2c-12.8,0-23.6-10.4-23.6-23.6l0,0c0-12.8,10.4-23.6,23.6-23.6h382
	c12.8,0,23.6,10.4,23.6,23.6l0,0C468.4,358.8,458,369.2,444.8,369.2z"/>
<g>
	<circle style="fill:#2B3B4E;" cx="442.4" cy="346" r="10.4"/>
	<circle style="fill:#2B3B4E;" cx="388.4" cy="346" r="10.4"/>
	<circle style="fill:#2B3B4E;" cx="334.8" cy="346" r="10.4"/>
	<circle style="fill:#2B3B4E;" cx="280.8" cy="346" r="10.4"/>
	<circle style="fill:#2B3B4E;" cx="227.2" cy="346" r="10.4"/>
	<circle style="fill:#2B3B4E;" cx="173.2" cy="346" r="10.4"/>
	<circle style="fill:#2B3B4E;" cx="119.6" cy="346" r="10.4"/>
	<circle style="fill:#2B3B4E;" cx="65.6" cy="346" r="10.4"/>
	<path style="fill:#2B3B4E;" d="M443.6,369.2H64.4v53.6c46.4,52,114.4,85.2,189.6,85.2c75.6,0,143.2-32.8,189.6-85.2V369.2z"/>
</g>
<path style="fill:#FFFFFF;" d="M434,322.4h-52.8c-2.8,0-5.2-2.4-5.2-5.2V264c0-2.8,2.4-5.2,5.2-5.2H434c2.8,0,5.2,2.4,5.2,5.2v53.2
	C439.6,320,437.2,322.4,434,322.4z"/>
<rect x="396.4" y="258.8" style="fill:#FF7058;" width="22" height="10"/>
<path style="fill:#FFFFFF;" d="M346.8,322.4h-53.2c-2.8,0-5.2-2.4-5.2-5.2V264c0-2.8,2.4-5.2,5.2-5.2h53.2c2.8,0,5.2,2.4,5.2,5.2
	v53.2C352,320,349.6,322.4,346.8,322.4z"/>
<rect x="309.2" y="258.8" style="fill:#FF7058;" width="22" height="10"/>
<path style="fill:#2B3B4E;" d="M194.8,7.2V72h16.4V3.6C205.6,4.4,200,5.6,194.8,7.2z"/>
<path id="SVGCleanerId_0" style="fill:#324A5E;" d="M246.8,101.2h-17.6V88c0-14-11.2-25.2-25.2-25.2S178.8,74,178.8,88v13.2h-19.2
	c-10.8,0-19.2,8.8-19.2,19.2l0,0c0,10.8,8.8,19.2,19.2,19.2h87.6c10.8,0,19.2-8.8,19.2-19.2l0,0C266,109.6,257.2,101.2,246.8,101.2z
	"/>
<g>
	<path id="SVGCleanerId_0_1_" style="fill:#324A5E;" d="M246.8,101.2h-17.6V88c0-14-11.2-25.2-25.2-25.2S178.8,74,178.8,88v13.2
		h-19.2c-10.8,0-19.2,8.8-19.2,19.2l0,0c0,10.8,8.8,19.2,19.2,19.2h87.6c10.8,0,19.2-8.8,19.2-19.2l0,0
		C266,109.6,257.2,101.2,246.8,101.2z"/>
</g>
<path style="fill:#FFFFFF;" d="M173.6,127.6c2.8-6.8-0.4-14.8-7.2-17.6c-6.8-2.8-14.8,0.4-17.6,7.2l-3.2,13.6c-1.6,7.2-4.4,14-8,20
	l-7.2,12c-2.8,6.8,0.4,14.8,7.2,17.6s14.8-0.4,17.6-7.2l3.2-13.6c1.6-7.2,4.4-14,8-20L173.6,127.6z"/>
<g>
	<circle style="fill:#CED5E0;" cx="161.2" cy="122.4" r="6"/>
	<circle style="fill:#CED5E0;" cx="142.8" cy="168" r="6"/>
</g>
<path style="fill:#FFFFFF;" d="M175.2,254.8L175.2,254.8c0,0-31.6-46.4-34-53.2l0,0c-2.8-7.2,1.2-14.8,8-17.6l0,0
	c7.2-2.8,14.8,1.2,17.6,8l0,0C169.2,199.2,175.2,254.8,175.2,254.8z"/>
<circle style="fill:#CED5E0;" cx="152.8" cy="195.2" r="6"/>
<path style="fill:#FFFFFF;" d="M232.4,127.6c-2.8-6.8,0.4-14.8,7.2-17.6c6.8-2.8,14.8,0.4,17.6,7.2l3.2,13.6c1.6,7.2,4.4,14,8,20
	l7.2,12c2.8,6.8-0.4,14.8-7.2,17.6c-6.8,2.8-14.8-0.4-17.6-7.2l-3.2-13.6c-1.6-7.2-4.4-14-8-20L232.4,127.6z"/>
<g>
	<circle style="fill:#CED5E0;" cx="244.8" cy="122.4" r="6"/>
	<circle style="fill:#CED5E0;" cx="263.2" cy="168" r="6"/>
</g>
<path style="fill:#FFFFFF;" d="M230.8,254.8L230.8,254.8c0,0,31.6-46.4,34-53.2l0,0c2.8-7.2-1.2-14.8-8-17.6l0,0
	c-7.2-2.8-14.8,1.2-17.6,8l0,0C236.8,199.2,230.8,254.8,230.8,254.8z"/>
<g>
	<circle style="fill:#CED5E0;" cx="253.2" cy="195.2" r="6"/>
	<circle style="fill:#CED5E0;" cx="203.2" cy="88" r="11.6"/>
</g>
</svg>
