<?xml version="1.0" encoding="UTF-8" standalone="no"?>
<svg xmlns="http://www.w3.org/2000/svg" version="1.1" width="64" height="64" viewBox="0 0 64 64" xml:space="preserve">
    <g>
	    <path
            d="M 61.966102,32 A 29.966102,29.966102 0 0 1 2.033898,32 29.966102,29.966102 0 1 1 61.966102,32 z"
            style="fill:#ffffff;fill-opacity:1;stroke:none" />
        <path
            d="M 32,3.5625 C 16.316,3.5625 3.5625,16.317 3.5625,32 3.5625,47.683 16.315,60.4375 32,60.4375 47.681,60.4375 60.4375,47.683 60.4375,32 60.4375,16.317 47.682,3.5625 32,3.5625 z"
            style="fill:#8bb71a;fill-opacity:1;stroke:none" />
	    <path
            d="m 47.355932,27.830508 -6,4 c 0,-1.214 -0.552,-2.288 -1.406,-3.022 2.033,-1.225 3.406,-3.432 3.406,-5.978 0,-3.866 -3.134,-7 -7,-7 -3.866,0 -7,3.134 -7,7 0,1.961 0.811,3.729 2.111,5 h -3.668 c 0.958,-1.063 1.557,-2.456 1.557,-4 0,-3.314 -2.686,-6 -6,-6 -3.314,0 -6,2.686 -6,6 0,1.808 0.817,3.41 2.082,4.51 -1.235,0.681 -2.082,1.98 -2.082,3.49 v 8 c 0,2.209 1.791,4 4,4 h 16 c 2.209,0 4,-1.791 4,-4 l 6,4 c 1.105,0 2,-0.895 2,-2 v -12 c 0,-1.105 -0.895,-2 -2,-2 z m -24,0 c -2.209,0 -4,-1.791 -4,-4 0,-2.209 1.791,-4 4,-4 2.209,0 4,1.791 4,4 0,2.209 -1.791,4 -4,4 z m 13,0.011 c -2.768,0 -5.011,-2.244 -5.011,-5.011 0,-2.768 2.244,-5.011 5.011,-5.011 2.767,0 5.011,2.243 5.011,5.011 0,2.768 -2.243,5.011 -5.011,5.011 z"
            style="fill:#ffffff;fill-rule:evenodd" />
    </g>
</svg>