<svg xmlns="http://www.w3.org/2000/svg" xmlns:xlink="http://www.w3.org/1999/xlink" version="1.1" id="Isolation_Mode" x="0" y="0" viewBox="0 0 32 32" xml:space="preserve" enable-background="new 0 0 32 32">
  <style type="text/css">
        .st0{fill:#37A7DF;}
        .st1{fill:#FFFFFF;}
  </style>
    <g>
      <path class="st0" d="M16 32c8.8 0 16-7.2 16-16S24.8 0 16 0 0 7.2 0 16 7.2 32 16 32"/>
      <path class="st1" d="M24 11.8c-0.6 0.3-1.2 0.4-1.9 0.5 0.7-0.4 1.2-1.1 1.4-1.8 -0.6 0.4-1.3 0.6-2.1 0.8 -0.6-0.6-1.5-1-2.4-1 -1.8 0-3.3 1.5-3.3 3.3 0 0.3 0 0.5 0.1 0.7 -2.7-0.1-5.2-1.4-6.8-3.4 -0.3 0.5-0.4 1.1-0.4 1.7 0 1.1 0.6 2.1 1.5 2.7 -0.5 0-1-0.2-1.5-0.4v0c0 1.6 1.1 2.9 2.6 3.2 -0.3 0.1-0.6 0.1-0.9 0.1 -0.2 0-0.4 0-0.6-0.1 0.4 1.3 1.6 2.3 3.1 2.3 -1.1 0.9-2.5 1.4-4.1 1.4 -0.3 0-0.5 0-0.8 0 1.5 0.9 3.2 1.5 5 1.5 6.1 0 9.4-5 9.4-9.4 0-0.1 0-0.3 0-0.4C23 13 23.6 12.5 24 11.8"/>
    </g>
</svg>