<?xml version="1.0" encoding="iso-8859-1"?>
<!-- Generator: Adobe Illustrator 19.0.0, SVG Export Plug-In . SVG Version: 6.00 Build 0)  -->
<svg version="1.1" id="Layer_1" xmlns="http://www.w3.org/2000/svg" xmlns:xlink="http://www.w3.org/1999/xlink" x="0px" y="0px"
	 viewBox="0 0 511.999 511.999" style="enable-background:new 0 0 511.999 511.999;" xml:space="preserve">
<circle style="fill:#E84F4F;" cx="255.999" cy="255.997" r="255.997"/>
<path style="fill:#C94545;" d="M128.319,419.831l89.42,89.42c12.473,1.902,25.368,2.748,38.263,2.748
	c135.715,0,246.699-105.486,255.577-239.088L383.896,145.228L128.319,419.831z"/>
<path style="fill:#F7F7F8;" d="M128.319,92.38H329.99l53.906,53.061v274.603H128.319V92.591L128.319,92.38L128.319,92.38z"/>
<path style="fill:#CCCCCC;" d="M329.99,92.38l53.906,53.061l-53.906,0.211V92.591L329.99,92.38L329.99,92.38z"/>
<path style="fill:#12B589;" d="M161.719,146.919h29.595v34.246h-29.595V146.919z M161.719,330.834h29.595v34.246h-29.595V330.834z
	 M161.719,269.529h29.595v34.246h-29.595V269.529z M161.719,208.224h29.595v34.246h-29.595V208.224z"/>
<path style="fill:#E84F4F;" d="M205.267,159.603h101.469v8.878H205.267V159.603z M205.267,343.517h101.469v8.878H205.267V343.517z
	 M205.267,282.213h101.469v8.878H205.267V282.213z M205.267,220.908h101.469v8.878H205.267V220.908z"/>
<g>
</g>
<g>
</g>
<g>
</g>
<g>
</g>
<g>
</g>
<g>
</g>
<g>
</g>
<g>
</g>
<g>
</g>
<g>
</g>
<g>
</g>
<g>
</g>
<g>
</g>
<g>
</g>
<g>
</g>
</svg>
