<?xml version="1.0" encoding="iso-8859-1"?>
<!-- Generator: Adobe Illustrator 19.0.0, SVG Export Plug-In . SVG Version: 6.00 Build 0)  -->
<svg version="1.1" id="Layer_1" xmlns="http://www.w3.org/2000/svg" xmlns:xlink="http://www.w3.org/1999/xlink" x="0px" y="0px"
	 viewBox="0 0 508 508" style="enable-background:new 0 0 508 508;" xml:space="preserve">
<circle style="fill:#324A5E;" cx="254" cy="254" r="254"/>
<path style="fill:#E6E9EE;" d="M414,349.6l-216.8,82c-6.8,2.4-14.4-0.8-16.8-7.6l-94-248.8c-2.4-6.8,0.8-14.4,7.6-16.8l216.8-82
	c6.8-2.4,14.4,0.8,16.8,7.6l94,248.8C424.4,339.6,420.8,347.2,414,349.6z"/>
<path style="fill:#FFFFFF;" d="M370,400.4H138c-7.2,0-13.2-6-13.2-13.2V120.8c0-7.2,6-13.2,13.2-13.2h232c7.2,0,13.2,6,13.2,13.2
	v266C382.8,394.4,377.2,400.4,370,400.4z"/>
<path style="fill:#84DBFF;" d="M347.6,170c-0.8-4.4-2.4-8.4-4.8-12l3.2-4.8l-7.2-7.2l-4.8,3.2c-3.6-2.4-7.6-4-12-4.8l-1.2-5.6h-10.4
	l-1.2,5.6c-4.4,0.8-8.4,2.4-12,4.8l-4.4-3.2l-7.2,7.2l3.2,4.8c-2.4,3.6-4,7.6-4.8,12l-6,0.8v10.4l5.6,1.2c0.8,4.4,2.4,8.4,4.8,12
	l-3.2,4.8l7.2,7.2l4.8-3.2c3.6,2.4,7.6,4,12,4.8l1.2,5.6h10.4l1.2-5.6c4.4-0.8,8.4-2.4,12-4.8l4.8,3.2l7.2-7.2l-3.2-4.8
	c2.4-3.6,4-7.6,4.8-12l5.6-1.2v-10.4L347.6,170z M315.6,192.8c-9.2,0-16.4-7.6-16.4-16.4c0-9.2,7.6-16.4,16.4-16.4
	c9.2,0,16.4,7.6,16.4,16.4C332.4,185.2,324.8,192.8,315.6,192.8z"/>
<g>
	<rect x="145.2" y="134.8" style="fill:#CED5E0;" width="109.6" height="9.2"/>
	<rect x="145.2" y="162" style="fill:#CED5E0;" width="109.6" height="9.2"/>
	<rect x="145.2" y="189.2" style="fill:#CED5E0;" width="109.6" height="9.2"/>
	<rect x="145.2" y="216.4" style="fill:#CED5E0;" width="109.6" height="9.2"/>
	<rect x="145.2" y="243.6" style="fill:#CED5E0;" width="217.6" height="9.2"/>
	<rect x="145.2" y="271.6" style="fill:#CED5E0;" width="217.6" height="9.2"/>
	<rect x="145.2" y="300" style="fill:#CED5E0;" width="217.6" height="9.2"/>
	<rect x="145.2" y="328" style="fill:#CED5E0;" width="217.6" height="9.2"/>
	<rect x="145.2" y="356.4" style="fill:#CED5E0;" width="217.6" height="9.2"/>
</g>
<g>
</g>
<g>
</g>
<g>
</g>
<g>
</g>
<g>
</g>
<g>
</g>
<g>
</g>
<g>
</g>
<g>
</g>
<g>
</g>
<g>
</g>
<g>
</g>
<g>
</g>
<g>
</g>
<g>
</g>
</svg>
