<?xml version="1.0" encoding="iso-8859-1"?>
<!-- Generator: Adobe Illustrator 19.0.0, SVG Export Plug-In . SVG Version: 6.00 Build 0)  -->
<svg version="1.1" id="Layer_1" xmlns="http://www.w3.org/2000/svg" xmlns:xlink="http://www.w3.org/1999/xlink" x="0px" y="0px"
	 viewBox="0 0 508 508" style="enable-background:new 0 0 508 508;" xml:space="preserve">
<circle style="fill:#84DBFF;" cx="254" cy="254" r="254"/>
<path style="fill:#54C0EB;" d="M56,413.2c46.8,58,118,94.8,198,94.8s151.2-36.8,198-94.8H56z"/>
<polygon style="fill:#F9B54C;" points="198.4,140.4 196,131.2 187.2,132.8 178,131.2 175.6,140.4 174.8,146.4 187.2,158.8 
	199.2,146.4 "/>
<g>
	<path style="fill:#FFD05B;" d="M228,226c0,0.4,5.2,39.6-11.6,40.4V264c0,0,8.8-6.8,4-14c0,0-1.2,10.4-4.4,10c0,0-3.2-11.2,4.8-19.2
		c0,0,0.4-14-1.2-16.4L228,226z"/>
	<path style="fill:#FFD05B;" d="M146,226c0,0.4-5.2,39.6,11.6,40.4V264c0,0-8.8-6.8-4-14c0,0,1.2,10.4,4.4,10c0,0,3.2-11.2-4.8-19.2
		c0,0-0.4-14,1.2-16.4L146,226z"/>
</g>
<g>
	<path style="fill:#E6E9EE;" d="M214.4,196.4c-0.4,12.8,2.8,44.4,2.8,44.4c1.6,12,6.8,59.2,2,88.8c0,0-2,42.8,0.4,58.4h-21.2
		c0.4-9.2,3.6-78.4-11.6-98.4c-15.2,20-12,89.6-11.6,98.4H154c2.8-15.6,0.4-58.4,0.4-58.4c-4.8-29.6,0.4-77.2,2-88.8
		c0,0,3.2-32,2.8-44.4c0,10.4-4.8,32-4.8,32h-10c-3.2-6-0.8-32.8-0.8-32.8c0-1.2,0-2.4,0-3.6c0-28.8,9.2-37.2,9.2-37.2
		c22.4-7.6,22.4-14.4,22.4-14.4c2.8,12.8,10.8,13.6,12,13.6s8.8-0.8,11.6-13.6c0,0,0,6.8,22.4,14.4c0,0,9.6,9.2,9.2,40.4
		c0,0,2.4,26.8-0.8,32.8h-10C219.2,228.4,214.4,206.8,214.4,196.4z"/>
	<path style="fill:#E6E9EE;" d="M219.2,228.4c0,0-4.8-21.2-4.8-32c0,1.6,0,3.6,0,6c0.4,14.8,2.8,38.8,2.8,38.8
		c1.6,12,6.8,59.2,2,88.8c0,0-2,42.8,0.4,58.4h-21.2c0.4-9.2,3.6-78.4-11.6-98.8c-15.2,20.4-12,89.6-11.6,98.8H154
		c2.8-15.6,0.4-58.4,0.4-58.4c-4.8-29.6,0.4-77.2,2-88.8c0,0,2.4-24,2.8-38.8c0-2.4,0-4.4,0-6c0,10.4-4.8,32-4.8,32h-10
		c-3.2-6-0.8-32.8-0.8-32.8c0-1.2,0-2.4,0-3.6c0-28.8,9.2-37.2,9.2-37.2c4.4-1.6,8-3.2,10.8-4.4c2-0.8,3.6-2,4.8-2.8
		c6.4-4.4,6.8-7.2,6.8-7.2c2.8,12.8,10.8,13.6,12,13.6s8.8-0.8,11.6-14c0,0,0,2.8,6.8,7.2c1.2,0.8,2.8,2,4.8,2.8
		c2.8,1.6,6.4,2.8,10.8,4.4c0,0,9.6,9.2,9.2,40.4c0,0,2.4,26.8-0.8,32.8h-10.4V228.4z"/>
</g>
<path style="fill:#324A5E;" d="M219.6,388h-21.2c0.4-9.2,3.6-78.4-11.6-98.8c-15.2,20.4-12,89.6-11.6,98.8H154
	c2.8-15.6,0.4-58.4,0.4-58.4c-4.8-29.6,0.4-77.2,2-88.8c0,0,2.4-24,2.8-38.8l2.8-24.8c0,0,3.2-16,1.6-27.6c2-0.8,3.6-2,4.8-2.8
	l2,27.2h32.4l2-27.2c1.2,0.8,2.8,2,4.8,2.8c-1.6,11.6,1.6,27.6,1.6,27.6L214,202c0.4,14.8,2.8,38.8,2.8,38.8c1.6,12,6.8,59.2,2,88.8
	C219.2,330,216.8,372.8,219.6,388z"/>
<path style="fill:#FFD05B;" d="M204,119.6c0,9.6-7.6,24-16.8,24s-16.8-14-16.8-24c0-9.6,7.6-11.6,16.8-11.6S204,110,204,119.6z"/>
<g>
	<path style="fill:#324A5E;" d="M205.2,122c0,0-0.8,5.6-3.6,8.4c0,0,2-6.8,0.4-9.6L205.2,122z"/>
	<path style="fill:#324A5E;" d="M169.2,122c0,0,0.8,5.6,3.6,8.4c0,0-2-6.8-0.4-9.6L169.2,122z"/>
</g>
<path style="fill:#F1543F;" d="M206.4,116c0.4-1.6,0.8-3.2,0.8-5.2c0-11.2-9.2-20-20-20s-20,9.2-20,20c0,1.6,0.4,3.6,0.8,5.2H206.4z
	"/>
<path style="fill:#FD8469;" d="M206.8,116h-12.4l3.6-22c0.4-2.4-1.6-4.4-3.6-4.4h-14c-2.4,0-4,2-3.6,4.4l3.6,22H168
	c-1.6,0-3.2,1.2-3.2,3.2c0,1.6,1.2,3.2,3.2,3.2h39.2c1.6,0,3.2-1.2,3.2-3.2C209.6,117.6,208.4,116,206.8,116z"/>
<path style="fill:#FFFFFF;" d="M217.6,305.2h-60.8c-2.4,0-4.4-2-4.4-4.4V240c0-2.4,2-4.4,4.4-4.4h60.8c2.4,0,4.4,2,4.4,4.4v60.8
	C221.6,303.2,220,305.2,217.6,305.2z"/>
<rect x="177.2" y="235.6" style="fill:#E6E9EE;" width="19.2" height="6.8"/>
<polygon style="fill:#F9B54C;" points="332.4,140.4 330,131.2 320.8,132.8 312,131.2 309.6,140.4 308.8,146.4 320.8,158.8 
	333.2,146.4 "/>
<g>
	<path style="fill:#FFD05B;" d="M362,226c0,0.4,5.2,39.6-11.6,40.4V264c0,0,8.8-6.8,4-14c0,0-1.2,10.4-4.4,10c0,0-3.2-11.2,4.8-19.2
		c0,0,0.4-14-1.2-16.4L362,226z"/>
	<path style="fill:#FFD05B;" d="M280,226c0,0.4-5.2,39.6,11.6,40.4V264c0,0-8.8-6.8-4-14c0,0,1.2,10.4,4.4,10c0,0,3.2-11.2-4.8-19.2
		c0,0-0.4-14,1.2-16.4L280,226z"/>
</g>
<g>
	<path style="fill:#E6E9EE;" d="M348.4,196.4c-0.4,12.8,2.8,44.4,2.8,44.4c1.6,12,6.8,59.2,2,88.8c0,0-2,42.8,0.4,58.4h-21.2
		c0.4-9.2,3.6-78.4-11.6-98.4c-15.2,20-12,89.6-11.6,98.4H288c2.8-15.6,0.4-58.4,0.4-58.4c-4.8-29.6,0.4-77.2,2-88.8
		c0,0,3.2-32,2.8-44.4c0,10.4-4.8,32-4.8,32h-10c-2.8-6.4-0.4-33.2-0.4-33.2c0-1.2,0-2.4,0-3.6c0-28.8,9.2-37.2,9.2-37.2
		c22.4-7.6,22.4-14.4,22.4-14.4c2.4,12.8,10.4,13.6,11.6,13.6s8.8-0.8,11.6-13.6c0,0,0,6.8,22.4,14.4c0,0,9.6,9.2,9.2,40.4
		c0,0,2.4,26.8-0.8,32.8h-10C353.2,228.4,348.4,206.8,348.4,196.4z"/>
	<path style="fill:#E6E9EE;" d="M353.2,228.4c0,0-4.8-21.2-4.8-32c0,1.6,0,3.6,0,6c0.4,14.8,2.8,38.8,2.8,38.8
		c1.6,12,6.8,59.2,2,88.8c0,0-2,42.8,0.4,58.4h-21.2c0.4-9.2,3.6-78.4-11.6-98.8c-15.2,20.4-12,89.6-11.6,98.8H288
		c2.8-15.6,0.4-58.4,0.4-58.4c-4.8-29.6,0.4-77.2,2-88.8c0,0,2.4-24,2.8-38.8c0-2.4,0-4.4,0-6c0,10.4-4.8,32-4.8,32h-10
		c-2.8-6.4-0.4-33.2-0.4-33.2c0-1.2,0-2.4,0-3.6c0-28.8,9.2-37.2,9.2-37.2c4.4-1.6,8-3.2,10.8-4.4c2-0.8,3.6-2,4.8-2.8
		c6.4-4.4,6.8-7.2,6.8-7.2c2.4,12.8,10.4,13.6,11.6,14c1.2,0,8.8-0.8,11.6-14c0,0,0,2.8,6.8,7.2c1.2,0.8,2.8,2,4.8,2.8
		c2.8,1.6,6.4,2.8,10.8,4.4c0,0,9.6,9.2,9.2,40.4c0,0,2.4,26.8-0.8,32.8h-10.4V228.4z"/>
</g>
<path style="fill:#324A5E;" d="M353.6,388h-21.2c0.4-9.2,3.6-78.4-11.6-98.8c-15.2,20.4-12,89.6-11.6,98.8H288
	c2.8-15.6,0.4-58.4,0.4-58.4c-4.8-29.6,0.4-77.2,2-88.8c0,0,2.4-24,2.8-38.8l2.8-24.8c0,0,3.2-16,1.6-27.6c2-0.8,3.6-2,4.8-2.8
	l2,27.2h32.4l2-27.2c1.2,0.8,2.8,2,4.8,2.8c-1.6,11.6,1.6,27.6,1.6,27.6L348,202c0.4,14.8,2.8,38.8,2.8,38.8c1.6,12,6.8,59.2,2,88.8
	C353.2,330,350.8,372.8,353.6,388z"/>
<path style="fill:#FFD05B;" d="M338,119.6c0,9.6-7.6,24-16.8,24c-9.2,0-16.8-14-16.8-24c0-9.6,7.6-11.6,16.8-11.6
	C330.4,108,338,110,338,119.6z"/>
<g>
	<path style="fill:#324A5E;" d="M338.8,122c0,0-0.8,5.6-3.6,8.4c0,0,2-6.8,0.4-9.6L338.8,122z"/>
	<path style="fill:#324A5E;" d="M302.8,122c0,0,0.8,5.6,3.6,8.4c0,0-2-6.8-0.4-9.6L302.8,122z"/>
</g>
<path style="fill:#F1543F;" d="M340.4,116c0.4-1.6,0.8-3.2,0.8-5.2c0-11.2-9.2-20-20-20c-11.2,0-20,9.2-20,20c0,1.6,0.4,3.6,0.8,5.2
	H340.4z"/>
<path style="fill:#FD8469;" d="M340.4,116H328l3.6-22c0.4-2.4-1.6-4.4-3.6-4.4h-14c-2.4,0-4,2-3.6,4.4l3.6,22h-12.4
	c-1.6,0-3.2,1.2-3.2,3.2c0,1.6,1.2,3.2,3.2,3.2h39.2c1.6,0,3.2-1.2,3.2-3.2C343.6,117.6,342.4,116,340.4,116z"/>
<path style="fill:#FFFFFF;" d="M351.2,305.2h-60.8c-2.4,0-4.4-2-4.4-4.4V240c0-2.4,2-4.4,4.4-4.4h60.8c2.4,0,4.4,2,4.4,4.4v60.8
	C355.6,303.2,353.6,305.2,351.2,305.2z"/>
<rect x="311.2" y="235.6" style="fill:#E6E9EE;" width="19.2" height="6.8"/>
<path style="fill:#324A5E;" d="M405.6,390.8H102.4c-23.6,0-42.4-19.2-42.4-42.4l0,0c0-23.6,19.2-42.4,42.4-42.4h303.2
	c23.6,0,42.4,19.2,42.4,42.4l0,0C448,371.6,429.2,390.8,405.6,390.8z"/>
<g>
	<circle style="fill:#2B3B4E;" cx="405.6" cy="348.4" r="20"/>
	<circle style="fill:#2B3B4E;" cx="102.4" cy="348.4" r="20"/>
	<circle style="fill:#2B3B4E;" cx="178.4" cy="348.4" r="20"/>
	<circle style="fill:#2B3B4E;" cx="254" cy="348.4" r="20"/>
	<circle style="fill:#2B3B4E;" cx="329.6" cy="348.4" r="20"/>
	<rect x="102.8" y="390.8" style="fill:#2B3B4E;" width="302" height="22.4"/>
</g>
<g>
</g>
<g>
</g>
<g>
</g>
<g>
</g>
<g>
</g>
<g>
</g>
<g>
</g>
<g>
</g>
<g>
</g>
<g>
</g>
<g>
</g>
<g>
</g>
<g>
</g>
<g>
</g>
<g>
</g>
</svg>
