<?xml version="1.0" encoding="iso-8859-1"?>
<!-- Generator: Adobe Illustrator 19.0.0, SVG Export Plug-In . SVG Version: 6.00 Build 0)  -->
<svg version="1.1" id="Layer_1" xmlns="http://www.w3.org/2000/svg" xmlns:xlink="http://www.w3.org/1999/xlink" x="0px" y="0px"
	 viewBox="0 0 508 508" style="enable-background:new 0 0 508 508;" xml:space="preserve">
<circle style="fill:#324A5E;" cx="254" cy="254" r="254"/>
<path style="fill:#F9B54C;" d="M395.6,166.8c-1.2-4-4.8-7.2-9.2-7.2H121.6c-4.4,0-8,3.2-9.2,7.2c0.8-5.2,4-10,8.4-13.2l46.4-31.6
	c3.6-2.4,8.4-4,12.8-4h148.4c4.4,0,8.8,1.2,12.8,4l46,32C392,156.8,394.8,161.6,395.6,166.8z"/>
<g>
	<path style="fill:#FFD05B;" d="M396,380V169.2c0-5.2-4.4-9.6-9.6-9.6H121.6c-5.2,0-9.6,4.4-9.6,9.6V380c0,5.2,4.4,9.6,9.6,9.6
		h264.8C391.6,389.6,396,385.2,396,380z"/>
	<path style="fill:#FFD05B;" d="M112,169.2c0-0.4,0-1.2,0-1.6c0,0.8,0,1.6,0,2.4V169.2z"/>
	<path style="fill:#FFD05B;" d="M396,169.2v0.8c0-0.8,0-1.6,0-2.4C396,168,396,168.8,396,169.2z"/>
</g>
<rect x="232.8" y="159.6" style="fill:#FF7058;" width="42.4" height="32.4"/>
<polygon style="fill:#F1543F;" points="242,118.4 232.8,159.6 275.2,159.6 266,118.4 "/>
<g>
	<path style="fill:#FFFFFF;" d="M197.6,282.8h-54.4c-5.6,0-10,4.4-10,10v54.4c0,5.6,4.4,10,10,10h54.4c5.6,0,10-4.4,10-10v-54.4
		C207.6,287.6,203.2,282.8,197.6,282.8z M202,347.2c0,2.4-2,4.4-4.4,4.4h-54.4c-2.4,0-4.4-2-4.4-4.4v-54.4c0-2.4,2-4.4,4.4-4.4h54.4
		c2.4,0,4.4,2,4.4,4.4V347.2z"/>
	<path style="fill:#FFFFFF;" d="M159.2,303.2c-0.4-0.4-0.4-0.4-0.8-0.4c-0.4,0-0.8-0.4-1.2-0.4s-0.8,0-1.2,0.4
		c-0.4,0-0.8,0.4-0.8,0.4l-9.2,9.2c-1.2,1.2-1.2,2.8,0,3.6c1.2,1.2,2.8,1.2,3.6,0l4.8-4.8v23.6c0,1.6,1.2,2.8,2.8,2.8
		s2.8-1.2,2.8-2.8v-23.6l4.8,4.8c0.4,0.4,1.2,0.8,2,0.8s1.2-0.4,2-0.8c1.2-1.2,1.2-2.8,0-3.6L159.2,303.2z"/>
	<path style="fill:#FFFFFF;" d="M185.6,303.2c-0.4-0.4-1.2-0.8-2-0.8s-1.6,0.4-2,0.8l-9.2,9.2c-1.2,1.2-1.2,2.8,0,3.6
		c1.2,1.2,2.8,1.2,3.6,0l4.8-4.8v23.6c0,1.6,1.2,2.8,2.8,2.8s2.8-1.2,2.8-2.8v-23.6l4.8,4.8c0.4,0.4,1.2,0.8,2,0.8s1.2-0.4,2-0.8
		c1.2-1.2,1.2-2.8,0-3.6L185.6,303.2z"/>
	<path style="fill:#FFFFFF;" d="M281.2,282.8h-54.4c-5.6,0-10,4.4-10,10v54.4c0,5.6,4.4,10,10,10h54.4c5.6,0,10-4.4,10-10v-54.4
		C291.2,287.6,286.8,282.8,281.2,282.8z M286,347.2c0,2.4-2,4.4-4.4,4.4h-54.8c-2.4,0-4.4-2-4.4-4.4v-54.4c0-2.4,2-4.4,4.4-4.4h54.4
		c2.4,0,4.4,2,4.4,4.4v54.4H286z"/>
	<path style="fill:#FFFFFF;" d="M266,298h-23.6c-1.6,0-2.8,1.2-2.8,2.8v12.8c0,7.2,5.2,13.2,12,14.4v8.8H248c-1.6,0-2.8,1.2-2.8,2.8
		c0,1.6,1.2,2.8,2.8,2.8h12.8c1.6,0,2.8-1.2,2.8-2.8c0-1.6-1.2-2.8-2.8-2.8h-3.6V328c6.8-1.2,12-7.2,12-14.4v-12.8
		C268.8,299.2,267.6,298,266,298z M263.2,313.6c0,5.2-4,9.2-9.2,9.2c-5.2,0-9.2-4-9.2-9.2v-10.4h18.4V313.6z"/>
	<path style="fill:#FFFFFF;" d="M364.8,282.8h-54.4c-5.6,0-10,4.4-10,10v54.4c0,5.6,4.4,10,10,10h54.4c5.6,0,10-4.4,10-10v-54.4
		C374.8,287.6,370,282.8,364.8,282.8z M369.2,347.2c0,2.4-2,4.4-4.4,4.4h-54.4c-2.4,0-4.4-2-4.4-4.4v-54.4c0-2.4,2-4.4,4.4-4.4h54.4
		c2.4,0,4.4,2,4.4,4.4L369.2,347.2L369.2,347.2z"/>
	<path style="fill:#FFFFFF;" d="M337.6,294.4c-13.2,0-24,10.8-24,24c0,1.6,1.2,2.8,2.8,2.8h18.8v18c0,0.8-0.8,1.6-1.6,1.6
		c-0.8,0-1.6-0.8-1.6-1.6c0-1.6-1.2-2.8-2.8-2.8c-1.6,0-2.8,1.2-2.8,2.8c0,4,3.2,7.2,7.2,7.2s7.2-3.2,7.2-7.2v-18h18.8
		c1.6,0,2.8-1.2,2.8-2.8C361.6,305.2,350.8,294.4,337.6,294.4z M319.2,315.6c1.2-9.2,9.2-16,18.4-16c9.2,0,17.2,6.8,18.4,16H319.2z"
		/>
</g>
<g>
</g>
<g>
</g>
<g>
</g>
<g>
</g>
<g>
</g>
<g>
</g>
<g>
</g>
<g>
</g>
<g>
</g>
<g>
</g>
<g>
</g>
<g>
</g>
<g>
</g>
<g>
</g>
<g>
</g>
</svg>
